<?xml version="1.0" encoding="UTF-8" standalone="no"?>
<svg width="75px" height="75px" viewBox="0 0 75 75" version="1.1" xmlns="http://www.w3.org/2000/svg" xmlns:xlink="http://www.w3.org/1999/xlink">
    <!-- Generator: Sketch 3.7.1 (28215) - http://www.bohemiancoding.com/sketch -->
    <title>mochi</title>
    <desc>Created with Sketch.</desc>
    <defs>
        <rect id="path-1" x="0" y="0" width="70" height="70" rx="3"></rect>
        <mask id="mask-2" maskContentUnits="userSpaceOnUse" maskUnits="objectBoundingBox" x="0" y="0" width="70" height="70" fill="white">
            <use xlink:href="#path-1"></use>
        </mask>
    </defs>
    <g id="Page-1" stroke="none" stroke-width="1" fill="none" fill-rule="evenodd">
        <g id="mochi">
            <g id="Group-15" transform="translate(1.000000, 1.000000)">
                <rect id="Rectangle-68-Copy-7" fill="#414141" opacity="0.149055504" x="3" y="3" width="70" height="70" rx="3"></rect>
                <use id="Rectangle-68" stroke="#636363" mask="url(#mask-2)" stroke-width="5" stroke-linecap="round" stroke-linejoin="round" fill="#FFFFFF" xlink:href="#path-1"></use>
                <g id="Group-9" transform="translate(7.000000, 8.000000)">
                    <g id="Group-7">
                        <path d="M31.3359142,55.5629258 C44.9723574,55.5629258 56.0268789,44.5084044 56.0268789,30.8719611 C56.0268789,17.2355178 44.9723574,6.18099642 31.3359142,6.18099642 C17.6994709,6.18099642 6.6449495,17.2355178 6.6449495,30.8719611 C6.6449495,44.5084044 17.6994709,55.5629258 31.3359142,55.5629258 Z" id="Oval-31-Copy-5" fill="#414141" opacity="0.149055504"></path>
                        <path d="M28.3359142,52.5629258 C41.9723574,52.5629258 53.0268789,41.5084044 53.0268789,27.8719611 C53.0268789,14.2355178 41.9723574,3.18099642 28.3359142,3.18099642 C14.6994709,3.18099642 3.6449495,14.2355178 3.6449495,27.8719611 C3.6449495,41.5084044 14.6994709,52.5629258 28.3359142,52.5629258 Z" id="Oval-31" stroke="#636363" stroke-width="2.5" fill="#FFFFFF"></path>
                        <path d="M23.0794925,7.04758997 C16.7071225,8.74491579 11.6454525,12.970402 8.98981238,18.4999219" id="Path-21" stroke="#636363" stroke-linecap="round" stroke-linejoin="round"></path>
                        <ellipse id="Oval-32" fill="#F3A5A5" cx="40.8211184" cy="28.6625021" rx="3.57559958" ry="2.31226622"></ellipse>
                        <ellipse id="Oval-32" fill="#F3A5A5" cx="17.5314022" cy="28.4940298" rx="3.57559958" ry="2.31226622"></ellipse>
                        <path d="M26.8573052,31.9032203 C26.8573052,30.8244029 27.715362,29.7537529 29.1641302,29.753753 C30.6128985,29.753753 31.4952154,30.8648768 31.4952154,31.9845914" id="Path-185-Copy" stroke="#636363" stroke-linecap="round" stroke-linejoin="round" transform="translate(29.176260, 30.869172) rotate(-180.000000) translate(-29.176260, -30.869172) "></path>
                        <path d="M17.7408648,25.0760063 C17.7408648,25.0760063 17.4799907,21.5368219 20.2364086,21.5368221 C22.780818,21.5368223 22.7319523,25.0760063 22.7319523,25.0760063" id="Path-71-Copy-2" stroke="#636363" stroke-linecap="round" stroke-linejoin="round"></path>
                        <path d="M35.0054141,25.0760063 C35.0054141,25.0760063 34.74454,21.5368219 37.5009578,21.5368221 C40.0453672,21.5368223 39.9965015,25.0760063 39.9965015,25.0760063" id="Path-71-Copy" stroke="#636363" stroke-linecap="round" stroke-linejoin="round"></path>
                    </g>
                </g>
            </g>
        </g>
    </g>
</svg>